<svg xmlns="http://www.w3.org/2000/svg" xmlns:xlink="http://www.w3.org/1999/xlink" viewBox="0 0 70.281 90">
  <defs>
    <style>
      .cls-1, .cls-2 {
        fill: #1bce7c;
        fill-rule: evenodd;
      }

      .cls-1 {
        filter: url(#filter);
      }

      .cls-2 {
        filter: url(#filter-2);
      }
    </style>
    <filter id="filter" x="830.813" y="1901.84" width="18.218" height="56.38" filterUnits="userSpaceOnUse">
      <feFlood result="flood" flood-color="#fe020e"/>
      <feComposite result="composite" operator="in" in2="SourceGraphic"/>
      <feBlend result="blend" in2="SourceGraphic"/>
    </filter>
    <filter id="filter-2" x="804.438" y="1883.5" width="70.281" height="90" filterUnits="userSpaceOnUse">
      <feFlood result="flood" flood-color="#fe020e"/>
      <feComposite result="composite" operator="in" in2="SourceGraphic"/>
      <feBlend result="blend" in2="SourceGraphic"/>
    </filter>
  </defs>
  <path id="Rectangle_3_copy_60" data-name="Rectangle 3 copy 60" class="cls-1" d="M849.035,1944.62l-4.667,4.67,4.484,4.48-4.435,4.44-4.484-4.49-4.458,4.46-4.422-4.42,4.458-4.46-4.693-4.69,4.434-4.43,4.694,4.69,4.667-4.67Zm0-19.16-4.667,4.66,4.484,4.49-4.435,4.43-4.484-4.48-4.458,4.46-4.422-4.42,4.458-4.46-4.693-4.69,4.434-4.44,4.694,4.69,4.667-4.66Zm0-19.17-4.667,4.67,4.484,4.48-4.435,4.44-4.484-4.49-4.458,4.46-4.422-4.42,4.458-4.46-4.693-4.69,4.434-4.43,4.694,4.69,4.667-4.67Z" transform="translate(-804.438 -1883.5)"/>
  <path id="Shape_9_copy_61" data-name="Shape 9 copy 61" class="cls-2" d="M874.694,1897.36s-26.561-7.96-35.328-13.87c0,0-7.435,5.21-34.907,13.87,0,0-2.331,76.15,35.505,76.15C876.9,1973.51,874.694,1897.36,874.694,1897.36Zm-8.135,5.79s-20.476-6.5-27.392-10.3a222.748,222.748,0,0,1-26.579,10.3s0,63.32,27.935,62.35C866.307,1964.61,866.559,1903.15,866.559,1903.15Z" transform="translate(-804.438 -1883.5)"/>
</svg>
