<?xml version="1.0" encoding="utf-8"?>
<!-- Generator: Adobe Illustrator 19.0.0, SVG Export Plug-In . SVG Version: 6.00 Build 0)  -->
<svg version="1.1" id="Layer_1" xmlns="http://www.w3.org/2000/svg" xmlns:xlink="http://www.w3.org/1999/xlink" x="0px" y="0px"
	 viewBox="0 0 22.8 37.3" style="enable-background:new 0 0 22.8 37.3;" xml:space="preserve">
<style type="text/css">
	.st0{fill:none;stroke:#FFFFFF;stroke-width:2.2831;stroke-miterlimit:10;}
	.st1{fill-rule:evenodd;clip-rule:evenodd;fill:#FFFFFF;}
</style>
<g>
	<path class="st0" d="M11.4,1.1L11.4,1.1c5.6,0,10.2,4.6,10.2,10.2v14.6c0,5.6-4.6,10.2-10.2,10.2l0,0c-5.6,0-10.2-4.6-10.2-10.2
		V11.4C1.1,5.7,5.7,1.1,11.4,1.1L11.4,1.1z"/>
	<path class="st1" d="M11.4,8.3L11.4,8.3c1.4,0,2.5,1.1,2.5,2.5v3.6c0,1.4-1.1,2.6-2.5,2.6l0,0c-1.4,0-2.5-1.1-2.5-2.6v-3.6
		C8.8,9.4,10,8.3,11.4,8.3L11.4,8.3z"/>
</g>
</svg>
