<?xml version="1.0" encoding="UTF-8"?>
<svg width="1674px" height="1842px" viewBox="0 0 1674 1842" version="1.1" xmlns="http://www.w3.org/2000/svg" xmlns:xlink="http://www.w3.org/1999/xlink">
    <!-- Generator: Sketch 43.2 (39069) - http://www.bohemiancoding.com/sketch -->
    <title>react-day-logo</title>
    <desc>Created with Sketch.</desc>
    <defs></defs>
    <g id="Page-1" stroke="none" stroke-width="1" fill="none" fill-rule="evenodd">
        <g id="react-day-logo" fill-rule="nonzero" fill="#3401F9">
            <g id="Group" transform="translate(0.000000, 353.000000)">
                <path d="M1376,482.6 L1376,482.6 C1358.2,476.5 1340.2,470.8 1322.2,465.6 C1325.2,453.4 1328,441.2 1330.5,428.9 C1371.3,231.1 1344.6,71.7 1253.6,19.2 C1178.3,-24.2 1061.6,9 938.4,99.6 L941.6,187.8 C1059.3,89.9 1167.5,52 1217.9,81.1 C1273.9,113.4 1295.7,243.6 1260.5,414.5 C1258.2,425.6 1255.7,436.7 1253,447.7 C1183.6,431.7 1108.3,419.8 1029.4,412.4 C1002,373.4 974,336.5 945.8,302.2 L947.4,347.2 C962.2,364.2 971.1,386.3 971.1,410.5 C971.1,425.4 967.7,439.5 961.7,452.1 C965.2,460.8 967.7,469.9 969.3,479.2 C976.2,479.6 983,480.1 989.8,480.6 C1018.2,522.5 1045,565.4 1070.4,609.3 C1095.9,653.2 1119.9,698 1142.5,743.5 C1120.2,789.5 1096.2,834.6 1070.6,878.9 L1070.6,878.9 C1045.3,922.9 1018.5,966.1 990.4,1008.4 C984,1008.9 977.5,1009.3 971,1009.7 L974.9,1153 C993.5,1128.7 1011.9,1103.3 1030.2,1076.9 C1111.1,1069.7 1187.4,1058 1256.7,1042 C1260.1,1055.8 1263.1,1069.3 1265.8,1082.5 L1265.8,1082.5 C1282.5,1167 1284.9,1243.5 1273.8,1303.2 C1263.8,1356.9 1243.8,1392.7 1219,1407 C1173.3,1433.5 1082.4,1407.1 979.7,1331.3 L982.1,1419.5 C1089,1487 1187.8,1507.5 1254.8,1468.7 C1344.5,1416.8 1373.7,1259.6 1335.8,1068.4 C1332.9,1053.8 1329.5,1038.9 1325.8,1023.7 C1336.4,1020.6 1346.8,1017.3 1356.9,1014 C1548.6,950.5 1673.4,847.8 1673.4,742.7 C1673.3,642.2 1556.6,544.8 1376,482.6 Z M1132.1,573.6 L1132.1,573.6 C1115.8,545.4 1098.8,517.5 1081.2,490 C1134.6,496.7 1185.7,505.7 1233.7,516.7 C1219.3,562.9 1201.3,611.2 1180.2,660.7 C1164.8,631.3 1148.7,602.3 1132.1,573.6 Z M1081,999.8 C1098.7,971.8 1115.8,943.4 1132.3,914.7 C1149.1,885.5 1165.3,856 1180.8,826.1 L1180.8,826.1 C1203.2,877.1 1222,926.3 1237,973.2 C1188.6,984.3 1136.2,993.2 1081,999.8 Z M1334.4,946.4 L1334.4,946.4 C1325.3,949.4 1315.9,952.4 1306.3,955.2 C1285.1,888.2 1256.6,816.9 1221.6,743.3 C1255,671.4 1282.4,601.1 1303,534.5 C1320.1,539.5 1336.7,544.7 1352.7,550.2 C1507.5,603.5 1601.9,682.2 1601.9,742.9 C1601.9,807.6 1499.9,891.5 1334.4,946.4 Z" id="Shape"></path>
                <path d="M693.7,1336.6 C650.9,1366.9 609.3,1389.3 571,1402.8 L571,1402.8 C519.5,1421 478.5,1421.5 453.7,1407.2 C400.9,1376.8 379,1259.3 408.9,1101.8 C412.5,1083.2 416.5,1064.7 421.1,1046.3 C489.6,1061.5 565.4,1072.4 646.5,1078.9 C663.6,1103 681.1,1126.4 698.7,1149 L702.5,1011.1 C696.8,1010.8 691.2,1010.4 685.6,1010.1 C656.7,967.9 629.5,924.7 603.9,880.4 C578.4,836.4 554.6,791.5 532.5,745.6 C554.5,699.8 578.2,654.8 603.6,610.8 L603.6,610.8 C629,566.8 656,523.7 684.7,481.7 C691.4,481.2 698.1,480.7 704.9,480.3 C706.5,470.9 709,461.8 712.5,453.1 C706.5,440.5 703.1,426.4 703.1,411.6 C703.1,387.8 711.7,366 726,349.1 L727.6,305.7 C699.6,339.5 672.1,375.5 645.3,413.4 C566.6,420.7 491.3,432.4 422.1,448.1 C417.8,431 414,413.8 410.6,396.6 L410.6,396.6 C379.2,236 400,114.8 452.6,84.4 C504.1,54.6 613.2,91.4 731.9,187.9 L735.1,100.4 C610.4,10.8 492.6,-21.3 416.8,22.6 C329.6,73.1 303.8,222.9 340.5,410.4 C344.2,429 348.3,447.4 352.9,465.8 C331.5,471.9 310.8,478.4 291,485.3 C113.9,547 0.9,643.8 0.9,744.1 C0.9,847.8 122.3,951.7 306.7,1014.8 C321.7,1019.9 336.7,1024.6 351.9,1028.9 C347,1048.7 342.6,1068.6 338.8,1088.6 C303.8,1272.8 331.1,1419.1 418.1,1469.3 C484.6,1507.6 584.4,1488.4 691.4,1423.8 L693.7,1336.6 Z M542.1,916.2 C558.9,945.2 576.4,973.9 594.6,1002.1 C539.8,996 488.2,987.7 440.5,977.3 C455.3,929.6 473.5,880.1 494.7,829.7 C509.8,858.8 525.6,887.7 542.1,916.2 Z M593.1,490.9 C575.4,518.6 558.3,546.7 541.8,575.2 C525.4,603.7 509.7,632.5 494.6,661.7 C473.8,612.4 456,563.8 441.5,517 C489.2,506.2 540.1,497.5 593.1,490.9 Z M371.1,959.9 C357.2,955.9 343.5,951.6 329.8,947 C248.2,919.1 180.9,882.9 134.7,843.4 C93.2,807.9 72.3,772.6 72.3,744 C72.3,683.1 163.1,605.4 314.5,552.6 C333.5,546 352.7,540 372.1,534.5 C393,602.6 420.5,673.7 453.6,745.7 C420.1,818.7 392.2,891 371.1,959.9 Z" id="Shape"></path>
            </g>
            <path d="M791.9,1229.1 L790.9,1256.4 L780.8,1256.4 C773.7,1256.4 767.9,1262.2 767.9,1269.3 L767.9,1283.5 C767.9,1290.6 773.7,1296.4 780.8,1296.4 L789.4,1296.4 L777.1,1745.9 C795.2,1742.5 815.5,1740.6 836.9,1740.6 C858.2,1740.6 878.3,1742.5 896.3,1745.9 L884,1296.4 L893.3,1296.4 C900.4,1296.4 906.2,1290.6 906.2,1283.5 L906.2,1269.3 C906.2,1262.2 900.4,1256.4 893.3,1256.4 L882.5,1256.4 L881.5,1229.4 C925,1211.8 955.7,1169.2 955.7,1119.3 C955.7,1066.4 921.1,1021.6 873.4,1006.3 L872.9,992.5 L893.3,992.5 C900.4,992.5 906.2,986.7 906.2,979.6 L906.2,965.4 C906.2,958.3 900.4,952.5 893.3,952.5 L885.9,952.5 L885.9,942 L885.9,941.4 L885.9,892.5 L885.9,854.5 C885.9,840 879.6,827 869.7,818.1 C868.6,817.1 867.5,816.2 866.4,815.4 L864.9,775.2 L874.3,775.2 C880.7,775.2 885.9,770 885.9,763.6 C885.9,757.2 880.7,752 874.3,752 L864.1,752 L836.8,0 L809.4,751.9 L799.9,751.9 C793.5,751.9 788.3,757.1 788.3,763.5 C788.3,769.9 793.5,775.1 799.9,775.1 L808.6,775.1 L807,816 C795.6,825 788.2,838.9 788.2,854.5 L788.2,877.1 L788.2,892.5 L788.2,915.1 L788.2,941.4 L788.2,952.4 L780.8,952.4 C773.7,952.4 767.9,958.2 767.9,965.3 L767.9,979.5 C767.9,986.6 773.7,992.4 780.8,992.4 L800.5,992.4 L800,1006.5 C752.6,1022.1 718.4,1066.7 718.4,1119.3 C718.4,1168.9 748.8,1211.3 791.9,1229.1 Z" id="Shape"></path>
        </g>
    </g>
</svg>