<svg id="Layer_1" data-name="Layer 1" xmlns="http://www.w3.org/2000/svg" xmlns:xlink="http://www.w3.org/1999/xlink" viewBox="0 0 396.71 122.9"><defs><style>.cls-1,.cls-2,.cls-5{fill-rule:evenodd;}.cls-1{fill:url(#New_Gradient_Swatch);}.cls-2{fill:url(#New_Gradient_Swatch-2);}.cls-3{fill:#141515;}.cls-4,.cls-5{fill:#43ff01;}</style><linearGradient id="New_Gradient_Swatch" x1="439.45" y1="885.51" x2="508.29" y2="1004.74" gradientUnits="userSpaceOnUse"><stop offset="0" stop-color="#9f0"/><stop offset="1" stop-color="#00dd3b"/></linearGradient><linearGradient id="New_Gradient_Swatch-2" x1="469.01" y1="936.71" x2="478.72" y2="953.54" xlink:href="#New_Gradient_Swatch"/></defs><title>RS_logo_blck</title><path class="cls-1" d="M439.6,920.19c-1.89-7.68-4.75-24.66,3-29.14h0c7.72-4.42,21,6.54,26.79,12a141.84,141.84,0,0,0-11.61,14.27,144.36,144.36,0,0,0-18.18,2.88Zm26.56-3.45c2.54-3.31,5.12-6.36,7.69-9.13a114.54,114.54,0,0,1,7.69,9.13c-5.12-.23-10.23-.23-15.38,0Zm-4.86,6.71a167.47,167.47,0,0,1,25.1,0,162.34,162.34,0,0,1,11.46,19.46c.37.74.74,1.48,1.09,2.2-.34.74-.71,1.48-1.09,2.23a163.72,163.72,0,0,1-11.43,19.46,160.21,160.21,0,0,1-25.1,0,163.52,163.52,0,0,1-12.55-21.66,165,165,0,0,1,12.52-21.69Zm36.56,37.24c1.57-2.63,3.06-5.31,4.46-8,1.6,3.82,3,7.59,4.09,11.22-2.72.63-5.57,1.17-8.55,1.63-1.06.14-2.14.31-3.23.46,1.11-1.74,2.2-3.51,3.23-5.28Zm-56.55-34.33c3.69-.83,7.63-1.54,11.78-2.08-2.77,4.34-5.35,8.76-7.69,13.33-1.6-3.85-3-7.62-4.09-11.24Zm37,60.85a141.84,141.84,0,0,0,11.61-14.27c2.72-.26,5.35-.57,7.92-1,3.57-.51,7-1.17,10.26-1.91,1.89,7.68,4.75,24.69-3,29.14h0c-1.94,1.11-4.4,1.28-7.26.6-4.12-1-9-3.77-14.32-8-1.72-1.37-3.43-2.88-5.2-4.57Zm-32.93-34.56q3.52,6.85,7.69,13.33c-4.15-.54-8.09-1.26-11.78-2.08,1.11-3.62,2.49-7.39,4.09-11.24ZM439.6,970a144.36,144.36,0,0,0,18.18,2.88,145.78,145.78,0,0,0,11.58,14.27c-5.72,5.45-19,16.44-26.76,12h0c-7.75-4.45-4.86-21.49-3-29.14Zm-28.24-24.91c0-8.93,16.18-15,23.76-17.18a137.87,137.87,0,0,0,6.6,17.15,139.94,139.94,0,0,0-6.6,17.18c-7.58-2.23-23.76-8.25-23.76-17.15Zm22,23.32c-2.63,10.76-5.12,29.82,6,36.24v0c11.12,6.42,26.44-5.31,34.45-13,1.92,1.83,3.83,3.48,5.69,5,6.46,5.19,12.75,8.5,18.32,9.48a15.38,15.38,0,0,0,10.46-1.51h0c11.12-6.42,8.63-25.51,6-36.27,10.66-3.11,28.5-10.5,28.5-23.32S525,924.9,514.33,921.81c2.63-10.79,5.12-29.85-6-36.27h0A15.13,15.13,0,0,0,497.86,884c-8.92,1.6-18.3,9.08-24,14.53-8-7.68-23.33-19.38-34.48-13h0c-11.12,6.39-8.63,25.51-6,36.27-10.66,3.08-28.5,10.47-28.5,23.32s17.84,20.21,28.47,23.32Zm64.46-38.9c-1-1.77-2.12-3.54-3.23-5.28,1.11.14,2.17.31,3.23.49,3,.46,5.83,1,8.55,1.6-1.11,3.62-2.49,7.39-4.09,11.24q-2.1-4.07-4.46-8ZM478.37,903c4.15-4,12.38-10.87,19.5-12.61a9.81,9.81,0,0,1,7.26.63h0c7.75,4.45,4.86,21.49,3,29.14-3.26-.74-6.69-1.37-10.26-1.91-2.57-.37-5.2-.71-7.92-1A145.78,145.78,0,0,0,478.37,903Zm34.25,59.25a139.61,139.61,0,0,0-6.6-17.15,139.94,139.94,0,0,0,6.6-17.18c7.58,2.23,23.76,8.25,23.76,17.18s-16.18,14.93-23.76,17.15ZM466.19,973.5c5.12.23,10.23.23,15.38,0-2.54,3.31-5.12,6.36-7.69,9.13a114.55,114.55,0,0,1-7.69-9.13Z" transform="translate(-404.93 -883.68)"/><path class="cls-2" d="M473.88,954.83a9.72,9.72,0,1,0-9.75-9.7,9.74,9.74,0,0,0,9.75,9.7Z" transform="translate(-404.93 -883.68)"/><path class="cls-3" d="M599.55,928.89V893.56h16.18c4.46,0,7.92,1.2,10.29,3.6a11,11,0,0,1,3,8.16q0,8.13-7.58,11l8.63,12.61H621l-7.69-11.3h-6v11.3Zm7.78-18.18h7.89a6.5,6.5,0,0,0,4.4-1.37,4.8,4.8,0,0,0,1.57-3.71,4.51,4.51,0,0,0-1.63-3.77,7.05,7.05,0,0,0-4.49-1.28h-7.75Z" transform="translate(-404.93 -883.68)"/><polygon class="cls-3" points="231.16 45.22 231.16 9.88 257.86 9.88 257.86 16.82 238.91 16.82 238.91 23.98 255.57 23.98 255.57 30.89 238.91 30.89 238.91 38.31 258.12 38.31 258.12 45.22 231.16 45.22"/><path class="cls-3" d="M667.22,928.89l15.15-35.59h7.18l15.18,35.59h-8.15L693.35,921h-15l-3.23,7.93Zm14-14.78h9.41l-4.72-11.44Z" transform="translate(-404.93 -883.68)"/><path class="cls-3" d="M725,929.49a17.36,17.36,0,0,1-13-5.28A18.3,18.3,0,0,1,725.33,893a18,18,0,0,1,7.75,1.48,22.17,22.17,0,0,1,5.95,4.28l-4.63,5.34a17.87,17.87,0,0,0-4.29-3,11.22,11.22,0,0,0-4.83-.94,9.6,9.6,0,0,0-7.35,3.2,12.23,12.23,0,0,0,0,15.78,9.53,9.53,0,0,0,7.35,3.22,11.36,11.36,0,0,0,4.92-1,19.29,19.29,0,0,0,4.4-3.14l4.95,5.31a18.83,18.83,0,0,1-6.23,4.54,20.88,20.88,0,0,1-8.26,1.46Z" transform="translate(-404.93 -883.68)"/><polygon class="cls-3" points="350.51 45.22 350.51 17.05 339.73 17.05 339.73 9.88 369.06 9.88 369.06 17.05 358.29 17.05 358.29 45.22 350.51 45.22"/><path class="cls-3" d="M612.13,996.47a21.73,21.73,0,0,1-15-5.65l4.6-5.51q5.19,4.28,10.55,4.28a6.49,6.49,0,0,0,3.74-.91,2.83,2.83,0,0,0,1.37-2.51,2.87,2.87,0,0,0-1.43-2.45,21.64,21.64,0,0,0-5.69-2,38.46,38.46,0,0,1-4.92-1.51,15.57,15.57,0,0,1-3.57-1.94,7.1,7.1,0,0,1-2.46-3.05,11.28,11.28,0,0,1-.8-4.4,9.73,9.73,0,0,1,3.46-7.73,13.44,13.44,0,0,1,8.95-2.91A20.37,20.37,0,0,1,624,964.62l-4,5.85c-3.34-2.31-6.4-3.48-9.21-3.48a5.51,5.51,0,0,0-3.37.88,2.76,2.76,0,0,0-1.17,2.28,2.81,2.81,0,0,0,1.46,2.6,28.36,28.36,0,0,0,6.17,2.05c3.83,1,6.66,2.31,8.49,3.88a8.53,8.53,0,0,1,2.72,6.82,9.82,9.82,0,0,1-3.54,8q-3.56,2.91-9.43,2.91Zm34.53,0c-4.83,0-8.58-1.31-11.29-4s-4-6.56-4-11.67V960.63h7.78v20c0,2.85.66,5,2,6.51a8.32,8.32,0,0,0,11.26.06c1.34-1.43,2-3.54,2-6.31V960.63h7.78v19.95q0,7.88-4.12,11.9c-2.74,2.68-6.55,4-11.38,4ZM670.1,996V960.63h8.4l9.29,15,9.29-15h8.4V996h-7.75V972.9L687.8,988h-.2l-9.86-15V996ZM714,996V960.63h8.38l9.32,15,9.29-15h8.4V996h-7.75V972.9L731.68,988h-.2l-9.86-15V996Zm44.22,0V960.63H766V996Zm24.87,0V967.79H772.3v-7.16h29.33v7.16H790.86V996Z" transform="translate(-404.93 -883.68)"/><path class="cls-4" d="M784.11,906.69v-3.8l7.23-5.91a20.44,20.44,0,0,0,2.94-2.83,3.85,3.85,0,0,0,.8-2.4,2.6,2.6,0,0,0-.8-2.05,3,3,0,0,0-2.12-.74,4,4,0,0,0-2.2.66,11.84,11.84,0,0,0-2.23,2.25l-3.34-2.71a11.87,11.87,0,0,1,3.52-3.4,8.82,8.82,0,0,1,4.57-1.08,7.83,7.83,0,0,1,5.43,1.86,6.23,6.23,0,0,1,2,4.91,7.56,7.56,0,0,1-.66,3.17,9.13,9.13,0,0,1-1.77,2.48q-1.11,1.07-3.26,2.74l-3.54,2.71h9.46v4.14Z" transform="translate(-404.93 -883.68)"/><path class="cls-5" d="M801.09,944.39H581.28l-5.23,41.81-5.2-41.81h-6.69l6.92,55.39H581l6.17-49.37H801.09Z" transform="translate(-404.93 -883.68)"/></svg>