<?xml version="1.0" encoding="UTF-8"?>
<svg width="183px" height="234px" viewBox="0 0 183 234" version="1.1" xmlns="http://www.w3.org/2000/svg" xmlns:xlink="http://www.w3.org/1999/xlink">
    <title>smile</title>
    <g id="Page-1" stroke="none" stroke-width="1" fill="none" fill-rule="evenodd">
        <g id="smile" fill="#000000">
            <path d="M92.05,175.23 C87.7615582,175.237966 83.6460312,173.539971 80.6108272,170.510394 C77.5756231,167.480818 75.8699926,163.368449 75.87,159.08 L75.87,158.57 L59.34,158.57 L59.34,159.08 C59.34,177.142472 73.9825278,191.784999 92.045,191.784999 C110.107472,191.784999 124.75,177.142472 124.75,159.08 L124.75,158.57 L108.23,158.57 L108.23,159.08 C108.230007,163.368449 106.524377,167.480818 103.489173,170.510394 C100.453969,173.539971 96.3384418,175.237966 92.05,175.23 Z" id="Path" stroke="#141515" stroke-width="0.57"></path>
            <rect id="Rectangle" stroke="#141515" stroke-width="0.57" fill-rule="nonzero" x="98.73" y="84.02" width="45.63" height="15.87"></rect>
            <path d="M20.68,50.95 C66.11,36.54 83.34,27.6 91.15,23.21 C98.93,27.61 116.15,36.54 161.59,50.95 C161.59,56.09 164.48,212.8 91.15,212.650108 C17.78,212.8 20.68,56.08 20.68,50.95 Z M91.15,233.490157 C185.95,233.69 182.23,42.49 182.23,35.88 C123.51,17.24 101.23,5.69 91.15,0.01 C81.09,5.69 58.76,17.25 0.07,35.88 C0.07,42.5 -3.65,233.69 91.15,233.490157 Z" id="Shape"></path>
            <path d="M60.34,68.98 C47.3281782,68.9910504 36.7889697,79.5481725 36.8000083,92.5599943 C36.8110642,105.571816 47.3681838,116.111027 60.3800056,116.099992 C73.3918275,116.088939 83.931041,105.531822 83.9200087,92.52 C83.8979351,79.5127493 73.3472694,68.98 60.34,68.98 L60.34,68.98 Z M52.8499933,92.52 C52.8499933,88.3902126 56.1968842,85.0418453 60.3266711,85.0400067 C64.4564581,85.0381695 67.8063175,88.3835565 67.8100001,92.5133422 C67.8136765,96.643128 64.4697837,99.9944789 60.34,100.000027 C58.3536358,100.00532 56.4469498,99.2192798 55.0414352,97.8156417 C53.6359206,96.4120036 52.8473337,94.5063696 52.8499933,92.52 L52.8499933,92.52 Z" id="Shape" stroke="#141515" stroke-width="0.57"></path>
        </g>
    </g>
</svg>