<svg xmlns="http://www.w3.org/2000/svg" xmlns:xlink="http://www.w3.org/1999/xlink" viewBox="0 0 36 29.31">
  <defs>
    <style>
      .cls-1 {
        fill: #fe7800;
        fill-rule: evenodd;
        filter: url(#filter);
      }
    </style>
    <filter id="filter" x="794.969" y="2967.72" width="36" height="29.31" filterUnits="userSpaceOnUse">
      <feFlood result="flood" flood-color="#fe7800"/>
      <feComposite result="composite" operator="in" in2="SourceGraphic"/>
      <feBlend result="blend" in2="SourceGraphic"/>
    </filter>
  </defs>
  <path id="Shape_19_copy_3" data-name="Shape 19 copy 3" class="cls-1" d="M794.965,2993.77s14.792,9.46,27.1-3.88c2.92-3.17,5.033-7.82,5.2-14.86a15.484,15.484,0,0,0,3.694-3.91,11.4,11.4,0,0,1-4.169,1.22,7.8,7.8,0,0,0,3.219-4.17,12.236,12.236,0,0,1-4.75,1.85,7.407,7.407,0,0,0-8.761-1.53c-5.436,2.42-3.853,8.28-3.853,8.28a19.97,19.97,0,0,1-15.2-7.81s-3.484,5.22,2.058,9.92a6.267,6.267,0,0,1-3.114-.9s-0.686,5.65,5.806,7.34a6.855,6.855,0,0,1-3.22.21s0.581,4.12,6.809,5.12C805.785,2990.65,802.2,2994.19,794.965,2993.77Z" transform="translate(-794.969 -2967.72)"/>
</svg>
