<svg xmlns="http://www.w3.org/2000/svg" xmlns:xlink="http://www.w3.org/1999/xlink"  viewBox="0 0 39 27.25">
  <defs>
    <style>
      .cls-1 {
        fill: #e62119;
        fill-rule: evenodd;
        filter: url(#filter);
      }
    </style>
    <filter id="filter" x="903" y="2968.88" width="39" height="27.25" filterUnits="userSpaceOnUse">
      <feFlood result="flood" flood-color="#e62119"/>
      <feComposite result="composite" operator="in" in2="SourceGraphic"/>
      <feBlend result="blend" in2="SourceGraphic"/>
    </filter>
  </defs>
  <path id="Rounded_Rectangle_1_copy_2" data-name="Rounded Rectangle 1 copy 2" class="cls-1" d="M909.061,2969.25s6.7-.38,13.412-0.38c6.728,0,13.465.38,13.465,0.38a5.678,5.678,0,0,1,5.679,5.68s0.378,3.78.378,7.57-0.378,7.57-.378,7.57a5.678,5.678,0,0,1-5.679,5.68s-6.773.38-13.519,0.38c-6.692,0-13.358-.38-13.358-0.38a5.678,5.678,0,0,1-5.678-5.68s-0.378-3.82-.378-7.63c0-3.76.378-7.51,0.378-7.51A5.678,5.678,0,0,1,909.061,2969.25ZM919,2977v12l10-6Z" transform="translate(-903 -2968.88)"/>
</svg>
